<?xml version='1.0' encoding='utf-8'?>
<!-- Generator: imaengine 6.0   -->
<svg xmlns:xlink="http://www.w3.org/1999/xlink" xmlns="http://www.w3.org/2000/svg" viewBox="0,0,978,1216" style="enable-background:new 0 0 978 1216;" version="1.1">
<defs/>
<g id="layer0">
<path d="M0,0L978,0L978,1216L0,1216L0,0Z" fill="#FFFFFF"/>
</g>
<g id="layer1">
<path d="M4,1211C15.8057,1190.85 30.9134,1222.97 40,1202C54.6474,1195.7 61.7611,1184.28 84,1185C83.8513,1179.52 87.2739,1177.61 94,1179C112.44,1182.99 104.452,1162.55 127,1171C143.306,1153.02 151.474,1172.58 171,1171C180.001,1155.33 191.64,1182.95 201,1156C208.73,1174.62 232.956,1153.54 241,1149C252.513,1138.09 272.602,1144.3 283,1132C296.944,1126.41 316.467,1128.17 326,1117C344.799,1116.83 353.868,1105.5 374,1108C386.31,1095.13 404.051,1095.42 414,1097C415.269,1092.94 421.726,1094.06 427,1094C431.176,1113.56 443.737,1086.23 450,1086C465.832,1115.13 457.223,1062.94 442,1082C431.291,1104.43 426.419,1074.41 400,1085C391.019,1093.19 368.833,1092.34 356,1100C350.727,1100.06 344.268,1098.94 343,1103C341.11,1112.29 316.493,1104.69 313,1116C306.133,1116.29 304.461,1115.04 299,1116C298.583,1132.39 270.824,1114.45 271,1132C267.77,1129.9 260.735,1131.6 256,1131C254.186,1146.47 227.864,1131.57 226,1146C220.774,1145.94 219.756,1151.52 220,1154C191.637,1155.79 221.398,1140.66 223,1136C203.54,1119.06 193.176,1145.62 181,1145C167.858,1146.41 153.999,1171.34 150,1154C142.847,1155.98 144.782,1147.46 143,1147C130.937,1164.25 136.827,1143.89 117,1146C116.67,1182.61 99.6551,1136.23 93,1163C80.1961,1171.67 65.1107,1176.36 55,1184C49.4931,1183.83 43.1621,1182.83 45,1190C36.6313,1202 26.9042,1203.53 36,1185C38.23,1182.06 39.1958,1176.44 45,1180C49.079,1180.08 53.7543,1180.75 53,1176C46.1899,1157.69 67.8841,1166.06 71,1159C82.5372,1150.97 65.0733,1127.2 56,1123C55.9049,1109.96 67.9854,1098.26 63,1075C59.5389,1069.46 40.3509,1033.68 66,1034C65.8755,1013.64 104.053,1037.11 109,1020C109.664,1014.24 104.957,1009.12 114,1011C117.927,1003.53 114.774,982.296 116,969C116,948.028 116,925.764 116,906C116,885.335 116,864.665 116,844C116,823.028 116,800.764 116,781C116,760.028 116,737.764 116,718C116,697.028 116,674.764 116,655C116,634.335 116,613.665 116,593C116,572.028 116,549.764 116,530C116,509.028 116,486.764 116,467C116,446.028 116,423.764 116,404C116,383.335 116,362.665 116,342C116,321.028 116,298.764 116,279C116,258.028 116,235.764 116,216C116,195.028 116,172.764 116,153C116,132.335 116,111.665 116,91C118.113,72.141 112.47,44.2341 120,32C140.972,32 163.236,32 183,32C203.972,32 226.236,32 246,32C266.665,32 287.335,32 308,32C328.972,32 351.236,32 371,32C391.972,32 414.236,32 434,32C454.972,32 477.236,32 497,32C517.665,32 538.335,32 559,32C578.42,33.5526 604.839,29.3966 619,35C594.945,41.8812 624.692,62.1831 626,69C650.239,65.082 663.092,76.9121 670,86C671.724,89.6093 671.437,95.2305 679,93C687.483,96.6511 684.987,111.968 703,111C711.143,120.175 719.753,137.279 739,134C760.139,139.465 752.267,161.942 753,169C767.854,173.128 766.51,197.424 787,194C784.355,199.952 788.769,201.864 793,200C794.69,180.893 813.962,189.869 812,205C814.341,206.632 821.667,209.299 816,213C802.185,210.741 812.777,241.353 808,250C801.191,261.224 794.003,272.445 783,283C777.928,277.391 745.336,264.541 740,281C726.639,288.304 736.502,318.837 732,335C721.043,341.162 695.865,341.221 688,352C644.742,353.196 703.263,368.633 704,355C720.469,349.588 745.649,351.59 749,363C747.845,367.178 750.094,374.761 743,373C721.052,366.384 726.804,387.472 706,382C672.585,390.458 726.963,391.414 727,400C744.654,388.406 759.996,420.765 774,400C773.42,384.101 751.064,371.65 759,360C761.811,360.035 769.138,353.966 763,354C748.749,347.578 768.599,335.346 777,334C796.807,315.706 794.898,352.03 816,344C816.172,353.308 850.257,369.054 824,375C826.524,378.568 822.781,384.817 818,381C802.813,381.38 813.135,408.829 801,411C808.158,433.959 777.501,429.693 786,454C775.361,478.988 803.257,494.838 786,501C787.752,504.581 792.877,504.791 795,508C774.037,511.684 797.674,523.364 794,534C796.285,557.257 784.672,567.907 776,579C749.405,588.061 772.323,607.49 787,592C791.175,581.531 823.711,580.624 814,566C806.729,554.017 797.74,541.083 811,526C827.155,521.182 815.101,486.865 819,471C833.036,455.485 809.961,446.793 831,437C842.574,426.695 858.01,421.972 862,409C874.855,400.475 874.813,386.118 888,376C893.492,364.373 906.748,352.392 908,335C906.414,321.469 915.645,292.583 904,283C905.883,261.483 903.841,242.994 894,232C884.574,220.453 880.376,202.388 872,191C866.821,190.846 862.769,189.564 863,184C859.441,171.255 849.333,165.112 840,162C830.763,154.726 821.455,144.014 809,139C798.212,132.94 774.113,131.668 767,120C753.144,114.327 732.587,111.195 729,98C720.742,86.5226 702.019,89.1731 694,76C677.429,78.655 663.579,68.1321 652,60C649.744,48.2936 615.331,47.9143 622,39C642.482,20.4282 610.864,18.6646 592,22C571.028,22 548.764,22 529,22C508.335,22 487.665,22 467,22C446.028,22 423.764,22 404,22C383.028,22 360.764,22 341,22C320.028,22 297.764,22 278,22C257.335,22 236.665,22 216,22C195.028,22 172.764,22 153,22C137.338,27.3102 96.9849,9.22095 106,38C106,58.9722 106,81.236 106,101C106,121.665 106,142.335 106,163C106,183.972 106,206.236 106,226C106,246.972 106,269.236 106,289C106,309.972 106,332.236 106,352C106,372.665 106,393.335 106,414C106,434.972 106,457.236 106,477C106,497.972 106,520.236 106,540C106,560.972 106,583.236 106,603C106,623.665 106,644.335 106,665C106,685.972 106,708.236 106,728C106,748.972 106,771.236 106,791C106,811.972 106,834.236 106,854C106,874.665 106,895.335 106,916C106,936.972 106,959.236 106,979C108.194,1004.18 106.644,1019.07 82,1016C77.8975,1014.14 72.6914,1015.52 69,1017C61.1047,1026.35 47.5966,1026.42 45,1038C39.8821,1064.56 58.8291,1061.48 53,1090C42.2321,1101.01 40.9597,1128.26 57,1133C64.2989,1131.03 59.6417,1141.03 61,1145C83.2116,1156.07 45.514,1150.18 49,1161C45.0883,1161.22 46.712,1171.59 42,1168C25.178,1166.75 31.2719,1189.97 19,1192C12.8101,1167.28 -2.621,1208.77 4,1211ZM503,1117C511.527,1117.31 529.514,1100.56 514,1099C507.837,1083.01 518.377,1076.15 526,1071C529.283,1060.98 544.792,1058.26 543,1047C549.448,1039.45 550.775,1026.77 551,1013C545.706,996.646 552.73,986.498 560,981C554.431,965.874 547.513,969.152 559,958C538.75,953.405 562.925,950.26 559,935C559,921.001 559,906.999 559,893C568.495,876.861 537.761,877.962 553,866C566.588,866.489 561.035,837.449 549,850C543.025,851.904 535.587,878.691 548,880C549.87,881.986 530.575,901.648 549,905C546,916.213 555.443,941.51 542,941C543.351,956.349 531.441,958.442 529,970C514.05,965.106 513.097,994.537 527,986C531.668,977.207 545.034,981.782 549,972C549.837,987.05 536.008,989.075 542,1008C547.22,1027.22 536.501,1030.5 534,1042C528.743,1050.96 515.683,1053.75 518,1069C510.578,1075.55 498.191,1078.16 503,1094C498.422,1107.65 490.652,1082.17 482,1084C464.016,1088.78 487.642,1066 488,1074C499.127,1093.05 495.926,1058.03 504,1061C508.01,1045.2 490.182,1044.61 505,1034C497.491,1023.14 498.221,1018.61 505,1009C513.235,997.723 495.671,985.494 488,996C482.149,1003.24 469.859,1010.15 474,1023C483.002,1036.98 484.222,991.019 487,1020C494.761,1037.75 466.313,1028.5 468,1042C462.684,1050.66 465.533,1068.5 466,1080C471.902,1085.34 471.434,1097.76 488,1096C490.196,1103.95 503.281,1105.95 503,1117ZM495,1003C499.039,1006.97 492.971,1013.04 489,1009C486.982,1003.01 491.978,998.012 495,1003ZM566,980C571.837,981.171 572.469,977.135 574,974C564.573,954.843 585.828,960.637 582,944C583.135,925.561 599.784,929.844 598,908C596.745,898.857 576.843,878.132 595,873C597.054,860.632 598.65,834.721 594,825C578.281,829.531 593.436,855.198 585,864C573.525,874.634 582.461,897.755 587,906C596.752,935.846 566.611,913.609 571,940C574.591,955.843 555.478,964.441 566,980ZM612,965C622.748,962.416 624.601,950.933 635,948C629.331,930.739 645.932,935.066 644,919C661.812,911.971 636.459,910.049 642,895C623.8,892.671 647.9,884.435 643,873C644.64,858.552 633.854,853.876 631,847C619.697,837.851 631.548,824.523 635,819C635.648,811.996 651.232,803.467 639,795C627.294,789.999 652.688,784.963 642,771C649.875,754.082 657.951,774.829 664,775C652.125,778.42 656.162,790.192 656,805C656,818.332 656,831.668 656,845C649.681,858.713 676.419,862.238 659,871C654.023,873.622 638.6,892.468 657,887C661.382,878.05 672.348,875.68 673,863C666.312,856.357 664.01,845.322 666,830C666,817.144 666,802.556 666,791C664.754,776.879 680.991,778.178 667,766C662.869,760.006 655.117,745.332 648,751C645.051,761.383 631.06,760.728 633,776C638.047,787.66 616.698,790.862 629,803C640.789,808.832 618.774,811.331 625,825C614.973,823.183 615.205,852.982 625,849C629.335,857.997 636.667,864.001 633,881C618.238,890.294 632.632,894.009 633,906C638.872,924.199 621.908,932.674 628,911C625.676,899.992 614.886,897.446 620,879C623.635,854.881 609.805,867.595 604,871C601.559,880.878 618.234,885.628 610,900C626.151,897.181 611.554,925.114 623,927C629.318,928.297 627.193,960.996 620,944C624.48,922.26 601.867,932.615 611,945C592.443,951.61 613.48,957.495 612,965ZM672,965C680.133,951.95 697.68,959.636 711,954C721.021,935.808 734.293,976.126 742,949C750.186,941.729 751.911,924.968 752,911C759.813,885.488 777.82,924.31 782,904C785.951,903.285 788.494,901.16 788,896C790.087,907.245 814.541,896.127 809,915C817.188,922.809 833.331,902.825 822,893C810.258,874.507 833.944,870.354 825,850C836.753,846.612 837.341,831.391 841,821C835.468,814.827 811.387,798.935 834,794C823.729,788.836 823.199,774.093 826,755C819.492,743.51 816.842,728.156 819,708C810.068,681.471 828.901,681.259 838,674C841.431,672.764 841.292,667.958 841,663C851.344,644.153 840.397,682.88 855,675C840.771,678.499 844.606,706.7 855,710C851.13,721.906 828.799,729.039 847,742C846.418,747.249 846.138,752.196 853,750C860.426,763.179 844.442,766.789 842,774C852.256,776.294 840.68,804.85 855,809C861.729,813.982 852.532,826.088 862,841C865.754,855.244 855.358,883.643 869,888C880.761,893.836 878.588,915.053 878,932C859.005,935 878.781,958.696 886,956C888.519,938.846 909.315,945.784 918,937C921.125,925.348 928.468,913.256 944,911C953.802,907.85 954.695,889.155 964,884C978.149,877.265 968.135,855.976 971,841C977.611,818.524 965.321,812.861 964,797C964,779.002 964,760.998 964,743C964,738.334 964,733.666 964,729C952.161,727.983 959.898,705.658 947,707C948.64,690.642 947.599,671.597 948,654C959.507,650.972 960.723,620.703 949,618C947.925,599.135 925.211,608.307 917,598C905.288,592.115 891.481,586.877 882,580C869.464,583.083 857.941,587.891 862,608C854.434,609.888 839.279,641.799 841,615C841.684,610.858 838.511,609.503 834,612C835.554,627.145 822.016,622.867 824,640C806.889,646.074 789.389,640.366 788,627C790.132,609.449 757.228,606.58 778,621C776.846,653.219 776.551,638.025 766,626C765.205,635.073 734.461,646.952 755,651C775.874,660.983 783.499,630.854 794,649C794.278,668.152 767.499,656.93 771,676C752.528,676.527 767.61,711.64 780,692C762.797,684.78 783.452,669.75 794,672C794.29,654.693 806.686,648.044 825,650C834.52,648.854 837.617,608.423 840,643C846.822,664.549 805.637,653.602 833,669C818.645,672.644 804.819,676.82 809,699C813.073,712.524 800.503,744.139 818,743C821.048,757.891 812.901,779.451 822,789C816.726,794.238 812.535,819.82 824,824C841.09,825.649 818.185,843.279 817,853C824.098,872.847 800.24,873.738 809,894C791.414,888.026 787.191,881.969 777,900C770.907,886.161 749.056,895.113 748,908C729.851,909.925 751.078,943.969 733,945C729.043,945.778 709.293,929.48 704,949C686.99,934.159 671.311,970.817 673,942C677.474,936.266 692.54,911.096 695,925C708.948,929.84 718.992,918.667 727,911C726.23,894.173 716.313,885.045 714,871C707.242,879.495 706.96,906.693 718,907C706.472,927.703 703.348,900.747 687,913C678.536,917.847 672.876,935.862 657,933C662.29,939.695 666.125,956.677 672,965ZM892,939C865.687,944.955 899.477,919.111 887,899C870.276,892.73 869.819,868.981 872,845C875.525,818.481 871.114,798.687 857,791C851.895,766.408 874.449,755.782 857,741C833.88,730.158 871.768,721.07 867,706C894.811,703.116 871.341,680.302 863,674C858.14,672.861 855.169,669.83 857,662C869.059,641.894 838.031,628.055 857,629C861.709,628.309 864.96,623.878 864,619C878.075,617.156 864.123,581.667 883,589C887.688,608.349 911.633,603.105 925,612C948.026,604.087 952.019,647.021 940,652C938.876,655.675 938.133,664.297 940,668C930.108,683.977 928.466,684.552 939,700C939.145,705.254 936.964,715.118 944,712C944.81,729.535 960.902,729.103 955,750C957.384,767.524 947.279,803.021 961,811C962.542,832.122 961.656,855.68 962,878C959.062,877.614 952.752,879.182 954,886C948.734,884.812 944.627,887.076 946,891C950.163,907.828 926.023,896.358 926,909C916.24,924.272 906.457,929.763 892,939ZM658,919C673.005,923.976 677.166,907.111 671,901C666.461,905.793 649.637,911.632 658,919ZM697,865C702.399,865 710.082,865 714,865C717.051,851.386 722.044,839.709 735,836C736.726,820.385 727.495,781.639 741,779C738.634,771.234 751.169,776.087 750,771C746.918,751.253 766.933,754.598 766,737C751.685,717.921 800.658,708.112 768,703C764.493,704.892 761.666,709.748 763,715C745.3,715.843 764.449,747.425 749,749C736.05,758.37 730.717,776.595 724,791C728.276,809.218 725.771,837.952 713,841C706.482,839.882 700.686,841.768 702,847C731.309,855.727 679.074,854.319 697,865ZM683,828C700.591,828.95 697.791,817.347 689,812C681.48,801.171 671.625,825.72 683,828ZM590,820C595.742,821.542 599.258,814.013 596,811C586.179,804.576 584.118,788.873 579,779C562.659,771.686 566.428,749.328 551,743C568.104,754.606 586.311,751.128 595,735C595.164,753.994 626.656,722.318 616,717C589.826,705.595 624.766,691.122 605,678C627.9,661.313 593.788,657.592 605,632C593.645,625.591 576.185,608.546 565,628C560.478,633.758 566.839,638.442 572,636C571.921,640.079 571.246,644.754 576,644C596.318,638.121 563.65,630.847 578,628C600.96,629.161 590.435,656.246 603,667C605.385,677.45 596.667,670.765 597,668C585.732,653.934 579.075,686.258 596,684C622.172,690.747 565.863,708.642 597,713C620.394,715.831 601.882,743.711 591,726C585.04,725.439 587.046,735.128 582,734C571.083,754.485 566.122,726.887 551,732C553.071,724.845 544.603,723.646 543,727C540.787,743.441 525.032,746.063 543,756C545.174,759.225 550.826,761.257 553,763C555.534,764.544 557.799,768.65 558,771C551.809,788.188 582.851,771.798 572,791C549.732,806.594 594.039,802.673 590,820ZM702,750C709.999,743.109 729.34,745.96 727,730C737.764,726.099 732.942,706.607 741,700C746.007,683.526 737.05,673.687 733,665C728.364,658.119 709.647,648.426 707,665C701.271,644.555 685.335,666.556 702,671C706.088,689.753 697.486,695.821 692,705C677.885,706.923 710.505,720.78 690,726C683.826,737.055 702.442,736.981 702,750ZM641,720C661.085,721.793 658.934,711.484 666,705C651.212,697.472 641.418,710.972 641,720ZM730,674C734.303,685.336 736.327,713.758 725,716C725.246,724.965 706.468,742.149 704,736C705.626,720.029 698.856,694.214 711,690C702.221,669.87 721.6,655.229 730,674ZM680,666C699.203,665.323 680.861,650.468 675,649C661.029,634.732 694.222,628.217 687,646C690.728,658.772 710.335,649.412 705,636C698.69,629.454 696.963,616.594 692,610C684.292,595.075 678.125,610.949 672,614C662.519,622.607 703.128,620.309 683,626C669.66,625.04 663.697,634.917 665,646C664.704,655.089 682.127,656.295 680,666ZM543,644C559.525,639.203 558.428,623.416 568,613C580.615,593.466 593.929,617.684 603,620C604.152,607.936 586.869,597.278 576,595C570.335,594.07 571.33,602.1 570,604C540.728,606.301 580.01,590.437 560,587C538.816,568.558 565.935,575.485 573,580C581.931,560.151 599.531,601.386 606,573C605.171,555.029 624.152,582.893 620,597C618.285,606.104 653.942,614.569 652,594C652.736,580.073 660.361,568.42 667,559C660.349,555.115 645.801,522.916 671,529C676.218,529.483 681.92,528.15 682,525C684.432,505.404 669.851,511.388 664,520C644.218,520.862 642.872,500.982 631,497C620.937,490.333 661.951,486.599 645,473C630.091,473.752 653.392,451.295 627,451C647.484,439.241 625.287,426.668 630,414C636.3,395.976 651.632,415.4 648,433C648,437.735 648,444.77 648,448C664.794,445.419 647.367,478.699 664,475C680.365,477.862 675.653,492.769 687,504C691.024,504.711 697.85,504.92 695,511C703.016,516.074 731.647,506.639 726,521C732.823,517.388 735.992,527.17 730,526C707.973,538.146 748.807,532.851 741,544C762.18,552.524 736.324,567.175 738,581C736.99,587.825 711.861,608.65 733,616C731.175,655.21 743.345,622.749 751,616C765.748,602.852 752.608,588.591 750,576C753.935,569.501 756.475,578.654 755,582C782.751,579.365 748.27,571.909 757,561C757.302,540.51 741.283,532.389 757,519C775.901,507.827 760.461,490.67 750,490C750.077,482.839 760.99,444.639 764,470C764.854,475.589 763.521,481.291 760,481C740.402,491.583 779.927,497.502 774,482C775.563,455.426 759.593,458.933 772,442C765.248,439.982 763.208,444.978 763,448C753.95,454.299 761.101,426.351 743,433C729.799,427.253 718.264,418.458 712,407C686.915,395.073 695.265,422.796 712,421C719.55,416.661 717.355,431.807 715,427C684.232,424.568 719.965,442.668 705,442C700.018,456.964 708.488,470.752 720,477C737.472,478.859 740.384,495.285 750,505C738.542,522.635 735.469,520.86 724,505C706.051,503.674 689.196,506.882 689,486C676.612,481.462 685.526,454.996 673,450C674.576,444.886 669.76,439.264 667,443C661.562,463.321 651.899,443.237 658,430C652.378,414.222 650.728,402.216 643,389C641.31,381.008 613.753,366.845 635,357C611.061,343.222 652.498,345.633 650,332C668.924,322.61 637.99,317.495 650,296C642.819,286.546 638.756,260.813 629,285C629.397,296.837 620.386,331.068 634,332C621.474,338.394 620.285,358.43 598,352C604.377,357.01 601.425,387.624 611,390C634.322,390.819 597.658,373.459 616,359C611.379,378.765 641.735,381.288 627,390C624.681,393.961 626.014,400.919 631,399C631.214,404.22 609.645,403.062 618,423C615.565,430.17 623.594,429.176 627,429C631.507,442.877 604.793,450.296 626,453C624.573,459.162 632.026,458.744 633,461C612.308,469.594 644.643,478.511 627,482C626.887,488.451 624.977,488.661 621,489C604.446,507.936 635.865,501.455 634,513C640.986,509.552 642.899,518.077 640,520C661.285,522.013 627.849,532.029 648,539C650.619,540.952 647.846,552.017 649,551C667.592,555.341 646.138,570.815 645,573C637.33,571.893 641.987,578.671 641,582C650.646,597.277 618.35,603.933 627,583C624.724,568.204 646.437,550.558 629,543C614.783,560.226 619.891,558.505 598,550C559.576,555.67 633.866,563.784 591,565C566.546,570.122 558.563,558.769 544,554C542.808,550.414 537.816,547.378 536,551C519.096,566.228 548.919,565.031 548,572C542.356,573.842 548.484,604.517 558,608C547.402,614.721 540.866,630.335 543,644ZM658,629C671.52,631.311 668.3,603.906 658,610C635.71,611.576 658.346,622.381 658,629ZM797,629C805.196,620.938 802.374,607.473 815,606C818.507,600.904 834.756,588.215 821,580C821.194,596.066 810.918,593.264 802,600C803.142,608.788 785.849,615.723 797,629ZM748,602C754.086,615.701 723.096,612.667 735,597C741.671,590.079 751.888,581.584 748,602ZM626,561C630.517,566.089 620.29,567.291 620,564C614.781,559.613 626.842,556.577 626,561ZM748,468C752.974,474.81 743.537,474.736 738,474C731.14,463.357 704.493,464.903 727,453C734.068,429.455 768.921,454.418 748,468ZM680,391C692.092,394.867 689.206,379.67 688,373C675.562,370.405 679.616,383.449 680,391ZM671,345C689.9,345.782 684.476,325.776 696,319C689.404,318.624 682.137,285.759 696,283C698.064,269.567 673.697,271.872 682,253C699.095,247.225 681.781,233.687 681,224C666.181,212.002 663.395,238.475 641,229C617.243,234.46 631.354,204.481 627,193C627,175.668 627,158.332 627,141C627,123.668 627,106.332 627,89C628.992,58.6207 609.759,85.7955 618,103C618,120.332 618,137.668 618,155C618,172.332 618,189.668 618,207C617.809,226.303 612.073,245.506 637,238C658.212,247.465 669.443,219.58 674,238C689.779,247.871 661.053,254.209 671,275C702.822,276.823 673.328,280.416 679,301C681.012,320.344 679.47,336.138 671,345ZM641,322C647.055,320.024 649.39,324.059 648,328C628.053,334.032 637.982,314.592 635,304C637.129,273.702 645.013,306.507 641,322Z" fill="#000000"/>
</g>
</svg>
